<svg xmlns="http://www.w3.org/2000/svg" xmlns:xlink="http://www.w3.org/1999/xlink" width="1400" zoomAndPan="magnify" viewBox="0 0 1050 419.999985" height="560" preserveAspectRatio="xMidYMid meet" version="1.0"><defs><filter x="0%" y="0%" width="100%" height="100%" id="a6b6964048"><feColorMatrix values="0 0 0 0 1 0 0 0 0 1 0 0 0 0 1 0 0 0 1 0" color-interpolation-filters="sRGB"/></filter><g/><clipPath id="a6b5f997b6"><path d="M 20.757812 75.28125 L 290.007812 75.28125 L 290.007812 344.53125 L 20.757812 344.53125 Z M 20.757812 75.28125 " clip-rule="nonzero"/></clipPath><mask id="83c04c869b"><g filter="url(#a6b6964048)"><rect x="-105" width="1260" fill="#000000" y="-41.999998" height="503.999982" fill-opacity="0.8"/></g></mask><clipPath id="85a8059b0d"><path d="M 42 46 L 225 46 L 225 184 L 42 184 Z M 42 46 " clip-rule="nonzero"/></clipPath><clipPath id="eef818b28e"><path d="M 0 131.675781 L 188.722656 1.085938 L 224.574219 52.890625 L 35.851562 183.484375 Z M 0 131.675781 " clip-rule="nonzero"/></clipPath><clipPath id="c2ab8085c8"><path d="M -2.847656 133.648438 L 188.960938 0.921875 L 255.535156 97.132812 L 63.730469 229.859375 Z M -2.847656 133.648438 " clip-rule="nonzero"/></clipPath><clipPath id="8b2d923d2f"><rect x="0" width="256" y="0" height="230"/></clipPath><mask id="9c04a31624"><g filter="url(#a6b6964048)"><rect x="-105" width="1260" fill="#000000" y="-41.999998" height="503.999982" fill-opacity="0.8"/></g></mask><clipPath id="d5e4fc5512"><path d="M 0.921875 0.910156 L 22.28125 0.910156 L 22.28125 77.410156 L 0.921875 77.410156 Z M 0.921875 0.910156 " clip-rule="nonzero"/></clipPath><clipPath id="917045fc44"><rect x="0" width="23" y="0" height="84"/></clipPath><mask id="7891f5d3bd"><g filter="url(#a6b6964048)"><rect x="-105" width="1260" fill="#000000" y="-41.999998" height="503.999982" fill-opacity="0.8"/></g></mask><clipPath id="2b23cb2580"><path d="M 0.632812 112 L 22 112 L 22 161.792969 L 0.632812 161.792969 Z M 0.632812 112 " clip-rule="nonzero"/></clipPath><clipPath id="ea8fc775d4"><path d="M 29 116 L 53 116 L 53 161.792969 L 29 161.792969 Z M 29 116 " clip-rule="nonzero"/></clipPath><clipPath id="0d412f50d4"><rect x="0" width="147" y="0" height="162"/></clipPath><clipPath id="9624a55d9b"><path d="M 242 160 L 258 160 L 258 175 L 242 175 Z M 242 160 " clip-rule="nonzero"/></clipPath><clipPath id="82a0d4d9cc"><path d="M 241.261719 162.160156 L 255.800781 159.675781 L 258.179688 173.617188 L 243.640625 176.101562 Z M 241.261719 162.160156 " clip-rule="nonzero"/></clipPath><clipPath id="12262a2f79"><path d="M 248.507812 160.921875 C 244.507812 161.605469 241.792969 165.28125 242.453125 169.128906 C 243.109375 172.980469 246.886719 175.546875 250.890625 174.863281 C 254.894531 174.179688 257.605469 170.503906 256.949219 166.65625 C 256.289062 162.804688 252.511719 160.238281 248.507812 160.921875 Z M 248.507812 160.921875 " clip-rule="nonzero"/></clipPath><clipPath id="536515bf4b"><path d="M 0 0.078125 L 15.761719 0.078125 L 15.761719 15 L 0 15 Z M 0 0.078125 " clip-rule="nonzero"/></clipPath><clipPath id="a4bddd6398"><path d="M -0.738281 2.160156 L 13.800781 -0.324219 L 16.179688 13.617188 L 1.640625 16.101562 Z M -0.738281 2.160156 " clip-rule="nonzero"/></clipPath><clipPath id="daf553340f"><path d="M 6.507812 0.921875 C 2.507812 1.605469 -0.207031 5.28125 0.453125 9.128906 C 1.109375 12.980469 4.886719 15.546875 8.890625 14.863281 C 12.894531 14.179688 15.605469 10.503906 14.949219 6.65625 C 14.289062 2.804688 10.511719 0.238281 6.507812 0.921875 Z M 6.507812 0.921875 " clip-rule="nonzero"/></clipPath><clipPath id="b38622591f"><rect x="0" width="16" y="0" height="15"/></clipPath><clipPath id="ffe2cc8d83"><path d="M 214 202 L 229 202 L 229 217 L 214 217 Z M 214 202 " clip-rule="nonzero"/></clipPath><clipPath id="7a2e47be35"><path d="M 213.402344 203.507812 L 228.074219 201.980469 L 229.539062 216.042969 L 214.871094 217.574219 Z M 213.402344 203.507812 " clip-rule="nonzero"/></clipPath><clipPath id="61285c22c9"><path d="M 220.714844 202.746094 C 216.675781 203.167969 213.730469 206.660156 214.136719 210.542969 C 214.542969 214.425781 218.144531 217.234375 222.183594 216.8125 C 226.222656 216.390625 229.167969 212.898438 228.761719 209.015625 C 228.359375 205.132812 224.753906 202.324219 220.714844 202.746094 Z M 220.714844 202.746094 " clip-rule="nonzero"/></clipPath><clipPath id="1a7ade4cb4"><path d="M 0 0.320312 L 15 0.320312 L 15 15 L 0 15 Z M 0 0.320312 " clip-rule="nonzero"/></clipPath><clipPath id="1ccd5eca60"><path d="M -0.597656 1.507812 L 14.074219 -0.0195312 L 15.539062 14.042969 L 0.871094 15.574219 Z M -0.597656 1.507812 " clip-rule="nonzero"/></clipPath><clipPath id="df8f907103"><path d="M 6.714844 0.746094 C 2.675781 1.167969 -0.269531 4.660156 0.136719 8.542969 C 0.542969 12.425781 4.144531 15.234375 8.183594 14.8125 C 12.222656 14.390625 15.167969 10.898438 14.761719 7.015625 C 14.359375 3.132812 10.753906 0.324219 6.714844 0.746094 Z M 6.714844 0.746094 " clip-rule="nonzero"/></clipPath><clipPath id="5e9380fdb7"><rect x="0" width="15" y="0" height="15"/></clipPath><clipPath id="28eaec0694"><path d="M 163 195 L 178 195 L 178 210 L 163 210 Z M 163 195 " clip-rule="nonzero"/></clipPath><clipPath id="13734f22dd"><path d="M 162.300781 196.4375 L 176.972656 194.910156 L 178.441406 208.972656 L 163.769531 210.503906 Z M 162.300781 196.4375 " clip-rule="nonzero"/></clipPath><clipPath id="43a242ee02"><path d="M 169.617188 195.675781 C 165.578125 196.097656 162.632812 199.589844 163.035156 203.472656 C 163.441406 207.355469 167.046875 210.164062 171.082031 209.742188 C 175.121094 209.320312 178.070312 205.828125 177.664062 201.945312 C 177.257812 198.0625 173.65625 195.253906 169.617188 195.675781 Z M 169.617188 195.675781 " clip-rule="nonzero"/></clipPath><clipPath id="03e887a318"><path d="M 0 0.121094 L 15 0.121094 L 15 15 L 0 15 Z M 0 0.121094 " clip-rule="nonzero"/></clipPath><clipPath id="39823f3dd5"><path d="M -0.699219 1.4375 L 13.972656 -0.0898438 L 15.441406 13.972656 L 0.769531 15.503906 Z M -0.699219 1.4375 " clip-rule="nonzero"/></clipPath><clipPath id="e17343fab8"><path d="M 6.617188 0.675781 C 2.578125 1.097656 -0.367188 4.589844 0.0351562 8.472656 C 0.441406 12.355469 4.046875 15.164062 8.082031 14.742188 C 12.121094 14.320312 15.070312 10.828125 14.664062 6.945312 C 14.257812 3.0625 10.65625 0.253906 6.617188 0.675781 Z M 6.617188 0.675781 " clip-rule="nonzero"/></clipPath><clipPath id="df6814adbb"><rect x="0" width="15" y="0" height="15"/></clipPath><clipPath id="90f45c2405"><path d="M 129 229 L 144 229 L 144 244 L 129 244 Z M 129 229 " clip-rule="nonzero"/></clipPath><clipPath id="8cba7664e7"><path d="M 128.488281 229.839844 L 143.15625 228.3125 L 144.625 242.375 L 129.957031 243.90625 Z M 128.488281 229.839844 " clip-rule="nonzero"/></clipPath><clipPath id="2d47e5d0da"><path d="M 135.800781 229.078125 C 131.761719 229.5 128.816406 232.992188 129.222656 236.875 C 129.628906 240.757812 133.230469 243.566406 137.269531 243.144531 C 141.308594 242.722656 144.253906 239.230469 143.847656 235.347656 C 143.441406 231.464844 139.839844 228.65625 135.800781 229.078125 Z M 135.800781 229.078125 " clip-rule="nonzero"/></clipPath><clipPath id="384b0aead3"><path d="M 0 0 L 15 0 L 15 14.601562 L 0 14.601562 Z M 0 0 " clip-rule="nonzero"/></clipPath><clipPath id="d969ce6334"><path d="M -0.511719 0.839844 L 14.15625 -0.6875 L 15.625 13.375 L 0.957031 14.90625 Z M -0.511719 0.839844 " clip-rule="nonzero"/></clipPath><clipPath id="073f55975c"><path d="M 6.800781 0.078125 C 2.761719 0.5 -0.183594 3.992188 0.222656 7.875 C 0.628906 11.757812 4.230469 14.566406 8.269531 14.144531 C 12.308594 13.722656 15.253906 10.230469 14.847656 6.347656 C 14.441406 2.464844 10.839844 -0.34375 6.800781 0.078125 Z M 6.800781 0.078125 " clip-rule="nonzero"/></clipPath><clipPath id="b875a08ab3"><rect x="0" width="15" y="0" height="15"/></clipPath><clipPath id="5142f46cc8"><path d="M 78 211 L 94 211 L 94 226 L 78 226 Z M 78 211 " clip-rule="nonzero"/></clipPath><clipPath id="5ea26662bd"><path d="M 78.195312 212.328125 L 92.867188 210.796875 L 94.335938 224.863281 L 79.664062 226.394531 Z M 78.195312 212.328125 " clip-rule="nonzero"/></clipPath><clipPath id="8c2d3eb962"><path d="M 85.507812 211.5625 C 81.46875 211.984375 78.523438 215.476562 78.929688 219.359375 C 79.335938 223.242188 82.9375 226.050781 86.976562 225.628906 C 91.015625 225.207031 93.960938 221.71875 93.558594 217.832031 C 93.152344 213.949219 89.546875 211.140625 85.507812 211.5625 Z M 85.507812 211.5625 " clip-rule="nonzero"/></clipPath><clipPath id="50d0ddb8df"><path d="M 0.480469 0 L 16 0 L 16 15 L 0.480469 15 Z M 0.480469 0 " clip-rule="nonzero"/></clipPath><clipPath id="ca31164691"><path d="M 0.195312 1.328125 L 14.867188 -0.203125 L 16.335938 13.863281 L 1.664062 15.394531 Z M 0.195312 1.328125 " clip-rule="nonzero"/></clipPath><clipPath id="836170d472"><path d="M 7.507812 0.5625 C 3.46875 0.984375 0.523438 4.476562 0.929688 8.359375 C 1.335938 12.242188 4.9375 15.050781 8.976562 14.628906 C 13.015625 14.207031 15.960938 10.71875 15.558594 6.832031 C 15.152344 2.949219 11.546875 0.140625 7.507812 0.5625 Z M 7.507812 0.5625 " clip-rule="nonzero"/></clipPath><clipPath id="df89c9e15e"><rect x="0" width="16" y="0" height="15"/></clipPath><clipPath id="ac73b5562c"><path d="M 48 247 L 64 247 L 64 262 L 48 262 Z M 48 247 " clip-rule="nonzero"/></clipPath><clipPath id="9e0f5789fe"><path d="M 47.875 248.304688 L 62.546875 246.773438 L 64.011719 260.839844 L 49.34375 262.367188 Z M 47.875 248.304688 " clip-rule="nonzero"/></clipPath><clipPath id="73314796a5"><path d="M 55.1875 247.539062 C 51.148438 247.960938 48.203125 251.453125 48.609375 255.335938 C 49.015625 259.21875 52.617188 262.027344 56.65625 261.605469 C 60.695312 261.183594 63.640625 257.695312 63.234375 253.808594 C 62.832031 249.925781 59.226562 247.117188 55.1875 247.539062 Z M 55.1875 247.539062 " clip-rule="nonzero"/></clipPath><clipPath id="b2fb44a865"><path d="M 0 0 L 15.839844 0 L 15.839844 15 L 0 15 Z M 0 0 " clip-rule="nonzero"/></clipPath><clipPath id="8f5e706aba"><path d="M -0.125 1.304688 L 14.546875 -0.226562 L 16.011719 13.839844 L 1.34375 15.367188 Z M -0.125 1.304688 " clip-rule="nonzero"/></clipPath><clipPath id="ff1f3c0923"><path d="M 7.1875 0.539062 C 3.148438 0.960938 0.203125 4.453125 0.609375 8.335938 C 1.015625 12.21875 4.617188 15.027344 8.65625 14.605469 C 12.695312 14.183594 15.640625 10.695312 15.234375 6.808594 C 14.832031 2.925781 11.226562 0.117188 7.1875 0.539062 Z M 7.1875 0.539062 " clip-rule="nonzero"/></clipPath><clipPath id="20b450b9d0"><rect x="0" width="16" y="0" height="15"/></clipPath><mask id="ae663c512a"><g filter="url(#a6b6964048)"><rect x="-105" width="1260" fill="#000000" y="-41.999998" height="503.999982" fill-opacity="0.8"/></g></mask><clipPath id="8d8da68f2c"><path d="M 31 46 L 214 46 L 214 185 L 31 185 Z M 31 46 " clip-rule="nonzero"/></clipPath><clipPath id="e717b26419"><path d="M 256.128906 98.554688 L 67.933594 229.90625 L 31.875 178.242188 L 220.070312 46.894531 Z M 256.128906 98.554688 " clip-rule="nonzero"/></clipPath><clipPath id="e45575b8ea"><path d="M 258.96875 96.574219 L 67.699219 230.070312 L 0.734375 134.125 L 192.007812 0.632812 Z M 258.96875 96.574219 " clip-rule="nonzero"/></clipPath><clipPath id="83192b2b3b"><rect x="0" width="260" y="0" height="231"/></clipPath></defs><rect x="-105" width="1260" fill="#ffffff" y="-41.999998" height="503.999982" fill-opacity="1"/><rect x="-105" width="1260" fill="#ffffff" y="-41.999998" height="503.999982" fill-opacity="1"/><g fill="#00357a" fill-opacity="1"><g transform="translate(300.417945, 205.277936)"><g><path d="M 78.75 -77.609375 L 78.75 0 L 58.421875 0 L 58.421875 -46.9375 L 58.234375 -46.9375 L 42.5625 -26.03125 L 27.265625 -46.9375 L 27.078125 -46.9375 L 27.078125 0 L 6.75 0 L 6.75 -77.609375 L 26.03125 -77.609375 L 42.5625 -54.8125 L 59.46875 -77.609375 Z M 78.75 -77.609375 "/></g></g></g><g fill="#00357a" fill-opacity="1"><g transform="translate(385.910935, 205.277936)"><g><path d="M 25.453125 -58.703125 L 33.4375 -58.703125 C 38.1875 -58.703125 42.050781 -58.066406 45.03125 -56.796875 C 48.007812 -55.535156 50.320312 -53.921875 51.96875 -51.953125 C 53.613281 -49.992188 54.785156 -47.984375 55.484375 -45.921875 C 56.179688 -43.867188 56.59375 -42.019531 56.71875 -40.375 C 56.84375 -38.726562 56.90625 -37.585938 56.90625 -36.953125 C 56.90625 -32.453125 56.285156 -27.921875 55.046875 -23.359375 C 53.816406 -18.804688 52.015625 -14.628906 49.640625 -10.828125 C 47.265625 -7.023438 44.378906 -3.984375 40.984375 -1.703125 C 37.597656 0.566406 33.753906 1.703125 29.453125 1.703125 C 25.140625 1.703125 21.289062 0.566406 17.90625 -1.703125 C 14.519531 -3.984375 11.640625 -7.023438 9.265625 -10.828125 C 6.890625 -14.628906 5.082031 -18.804688 3.84375 -23.359375 C 2.613281 -27.921875 2 -32.453125 2 -36.953125 C 2 -37.585938 2.0625 -38.726562 2.1875 -40.375 C 2.3125 -42.019531 2.722656 -43.867188 3.421875 -45.921875 C 4.117188 -47.984375 5.289062 -49.992188 6.9375 -51.953125 C 8.582031 -53.921875 10.890625 -55.535156 13.859375 -56.796875 C 16.835938 -58.066406 20.703125 -58.703125 25.453125 -58.703125 Z M 29.453125 -14.8125 C 30.585938 -14.8125 31.835938 -15.695312 33.203125 -17.46875 C 34.566406 -19.25 35.753906 -21.675781 36.765625 -24.75 C 37.773438 -27.820312 38.28125 -31.351562 38.28125 -35.34375 C 38.28125 -38.125 37.503906 -40.128906 35.953125 -41.359375 C 34.398438 -42.597656 32.234375 -43.21875 29.453125 -43.21875 C 26.660156 -43.21875 24.488281 -42.597656 22.9375 -41.359375 C 21.382812 -40.128906 20.609375 -38.125 20.609375 -35.34375 C 20.609375 -31.351562 21.113281 -27.820312 22.125 -24.75 C 23.144531 -21.675781 24.347656 -19.25 25.734375 -17.46875 C 27.128906 -15.695312 28.367188 -14.8125 29.453125 -14.8125 Z M 29.453125 -14.8125 "/></g></g></g><g fill="#00357a" fill-opacity="1"><g transform="translate(444.806106, 205.277936)"><g><path d="M 5.125 -57.375 L 59.75 -57.375 C 64.945312 -57.375 69.03125 -56.597656 72 -55.046875 C 74.976562 -53.492188 77.101562 -51.085938 78.375 -47.828125 C 79.644531 -44.566406 80.28125 -40.40625 80.28125 -35.34375 L 80.28125 0 L 62.515625 0 L 62.515625 -32.6875 C 62.453125 -35.15625 62.289062 -37.035156 62.03125 -38.328125 C 61.78125 -39.628906 61.113281 -40.53125 60.03125 -41.03125 C 58.957031 -41.539062 57.125 -41.828125 54.53125 -41.890625 L 51.578125 -41.890625 L 51.578125 0 L 33.8125 0 L 33.8125 -41.890625 L 22.890625 -41.890625 L 22.890625 0 L 5.125 0 Z M 5.125 -57.375 "/></g></g></g><g fill="#00357a" fill-opacity="1"><g transform="translate(530.299107, 205.277936)"><g><path d="M 50.828125 -15.484375 L 46.265625 0 L 35.25 0 C 30.6875 0 26.394531 -0.929688 22.375 -2.796875 C 18.351562 -4.671875 14.804688 -7.238281 11.734375 -10.5 C 8.660156 -13.757812 6.253906 -17.507812 4.515625 -21.75 C 2.773438 -26 1.90625 -30.53125 1.90625 -35.34375 C 2.03125 -43.445312 4.101562 -49.398438 8.125 -53.203125 C 12.144531 -57.003906 18.84375 -58.835938 28.21875 -58.703125 L 32.015625 -58.703125 C 36.515625 -58.703125 40.140625 -58.257812 42.890625 -57.375 C 45.648438 -56.488281 47.785156 -55.347656 49.296875 -53.953125 C 50.816406 -52.566406 51.863281 -51.128906 52.4375 -49.640625 C 53.007812 -48.148438 53.34375 -46.785156 53.4375 -45.546875 C 53.53125 -44.316406 53.578125 -43.414062 53.578125 -42.84375 C 53.578125 -38.601562 52.53125 -34.847656 50.4375 -31.578125 C 48.351562 -28.316406 45.726562 -25.46875 42.5625 -23.03125 C 39.394531 -20.59375 36.132812 -18.425781 32.78125 -16.53125 C 35.1875 -16.019531 37.210938 -15.71875 38.859375 -15.625 C 40.503906 -15.53125 42.085938 -15.484375 43.609375 -15.484375 Z M 34.953125 -40.28125 C 34.953125 -41.289062 34.632812 -41.984375 34 -42.359375 C 33.375 -42.742188 32.632812 -42.984375 31.78125 -43.078125 C 30.925781 -43.171875 30.117188 -43.21875 29.359375 -43.21875 C 23.460938 -43.21875 20.515625 -40.367188 20.515625 -34.671875 C 20.515625 -33.535156 20.625 -32.378906 20.84375 -31.203125 C 21.070312 -30.035156 21.375 -28.910156 21.75 -27.828125 C 22.707031 -28.335938 23.925781 -29.035156 25.40625 -29.921875 C 26.894531 -30.804688 28.367188 -31.816406 29.828125 -32.953125 C 31.285156 -34.097656 32.503906 -35.300781 33.484375 -36.5625 C 34.460938 -37.832031 34.953125 -39.070312 34.953125 -40.28125 Z M 34.953125 -40.28125 "/></g></g></g><g fill="#00357a" fill-opacity="1"><g transform="translate(585.394577, 205.277936)"><g><path d="M 5.03125 -57.375 L 33.34375 -57.375 C 38.539062 -57.375 42.625 -56.597656 45.59375 -55.046875 C 48.570312 -53.492188 50.691406 -51.085938 51.953125 -47.828125 C 53.222656 -44.566406 53.859375 -40.40625 53.859375 -35.34375 L 53.859375 0 L 35.625 0 L 35.625 -32.6875 C 35.5625 -35.15625 35.398438 -37.035156 35.140625 -38.328125 C 34.890625 -39.628906 34.226562 -40.53125 33.15625 -41.03125 C 32.082031 -41.539062 30.242188 -41.828125 27.640625 -41.890625 L 23.28125 -41.890625 L 23.28125 0 L 5.03125 0 Z M 5.03125 -57.375 "/></g></g></g><g fill="#00357a" fill-opacity="1"><g transform="translate(644.28976, 205.277936)"><g><path d="M 24.21875 -74 L 24.21875 -57.375 L 33.8125 -57.375 L 33.8125 -42.375 L 24.21875 -42.375 L 24.21875 -20.515625 C 24.21875 -19.191406 24.519531 -18.050781 25.125 -17.09375 C 25.726562 -16.144531 26.976562 -15.609375 28.875 -15.484375 L 36.09375 -15.484375 L 31.546875 0 L 23.28125 0 C 19.976562 0 17.015625 -0.503906 14.390625 -1.515625 C 11.765625 -2.535156 9.707031 -4.3125 8.21875 -6.84375 C 6.726562 -9.375 5.984375 -12.953125 5.984375 -17.578125 L 5.984375 -42.375 L 1.90625 -42.375 L 1.90625 -57.375 L 5.984375 -57.375 L 5.984375 -68.59375 Z M 24.21875 -74 "/></g></g></g><g fill="#00357a" fill-opacity="1"><g transform="translate(680.386803, 205.277936)"><g><path d="M 25.453125 -58.703125 L 33.4375 -58.703125 C 38.1875 -58.703125 42.050781 -58.066406 45.03125 -56.796875 C 48.007812 -55.535156 50.320312 -53.921875 51.96875 -51.953125 C 53.613281 -49.992188 54.785156 -47.984375 55.484375 -45.921875 C 56.179688 -43.867188 56.59375 -42.019531 56.71875 -40.375 C 56.84375 -38.726562 56.90625 -37.585938 56.90625 -36.953125 C 56.90625 -32.453125 56.285156 -27.921875 55.046875 -23.359375 C 53.816406 -18.804688 52.015625 -14.628906 49.640625 -10.828125 C 47.265625 -7.023438 44.378906 -3.984375 40.984375 -1.703125 C 37.597656 0.566406 33.753906 1.703125 29.453125 1.703125 C 25.140625 1.703125 21.289062 0.566406 17.90625 -1.703125 C 14.519531 -3.984375 11.640625 -7.023438 9.265625 -10.828125 C 6.890625 -14.628906 5.082031 -18.804688 3.84375 -23.359375 C 2.613281 -27.921875 2 -32.453125 2 -36.953125 C 2 -37.585938 2.0625 -38.726562 2.1875 -40.375 C 2.3125 -42.019531 2.722656 -43.867188 3.421875 -45.921875 C 4.117188 -47.984375 5.289062 -49.992188 6.9375 -51.953125 C 8.582031 -53.921875 10.890625 -55.535156 13.859375 -56.796875 C 16.835938 -58.066406 20.703125 -58.703125 25.453125 -58.703125 Z M 29.453125 -14.8125 C 30.585938 -14.8125 31.835938 -15.695312 33.203125 -17.46875 C 34.566406 -19.25 35.753906 -21.675781 36.765625 -24.75 C 37.773438 -27.820312 38.28125 -31.351562 38.28125 -35.34375 C 38.28125 -38.125 37.503906 -40.128906 35.953125 -41.359375 C 34.398438 -42.597656 32.234375 -43.21875 29.453125 -43.21875 C 26.660156 -43.21875 24.488281 -42.597656 22.9375 -41.359375 C 21.382812 -40.128906 20.609375 -38.125 20.609375 -35.34375 C 20.609375 -31.351562 21.113281 -27.820312 22.125 -24.75 C 23.144531 -21.675781 24.347656 -19.25 25.734375 -17.46875 C 27.128906 -15.695312 28.367188 -14.8125 29.453125 -14.8125 Z M 29.453125 -14.8125 "/></g></g></g><g fill="#00357a" fill-opacity="1"><g transform="translate(739.281986, 205.277936)"><g><path d="M 45.21875 -77.609375 L 49.96875 -60.140625 L 32.875 -60.140625 C 32.238281 -60.140625 31.316406 -60.140625 30.109375 -60.140625 C 28.910156 -60.140625 27.816406 -59.960938 26.828125 -59.609375 C 25.847656 -59.265625 25.359375 -58.582031 25.359375 -57.5625 C 25.359375 -56.488281 25.738281 -55.507812 26.5 -54.625 C 27.257812 -53.738281 27.988281 -52.914062 28.6875 -52.15625 L 42.84375 -36.484375 C 45.25 -33.816406 47.445312 -31.023438 49.4375 -28.109375 C 51.4375 -25.203125 52.4375 -21.816406 52.4375 -17.953125 C 52.4375 -16.242188 52.132812 -14.359375 51.53125 -12.296875 C 50.9375 -10.242188 49.878906 -8.28125 48.359375 -6.40625 C 46.835938 -4.539062 44.710938 -3.003906 41.984375 -1.796875 C 39.265625 -0.597656 35.785156 0 31.546875 0 L 7.890625 0 L 3.140625 -17.484375 L 21.5625 -17.484375 C 22.257812 -17.484375 23.191406 -17.484375 24.359375 -17.484375 C 25.535156 -17.484375 26.613281 -17.65625 27.59375 -18 C 28.570312 -18.351562 29.0625 -19.035156 29.0625 -20.046875 C 29.0625 -21.117188 28.679688 -22.097656 27.921875 -22.984375 C 27.171875 -23.867188 26.445312 -24.691406 25.75 -25.453125 L 11.96875 -41.046875 C 10.382812 -42.878906 8.863281 -44.726562 7.40625 -46.59375 C 5.945312 -48.46875 4.757812 -50.476562 3.84375 -52.625 C 2.925781 -54.78125 2.46875 -57.125 2.46875 -59.65625 C 2.46875 -61.363281 2.769531 -63.25 3.375 -65.3125 C 3.976562 -67.375 5.035156 -69.335938 6.546875 -71.203125 C 8.066406 -73.066406 10.1875 -74.597656 12.90625 -75.796875 C 15.632812 -77.003906 19.125 -77.609375 23.375 -77.609375 Z M 45.21875 -77.609375 "/></g></g></g><g fill="#00357a" fill-opacity="1"><g transform="translate(792.4776, 205.277936)"><g><path d="M 37.234375 -57.375 L 41.796875 -41.890625 L 29.453125 -41.890625 C 28.753906 -41.890625 27.894531 -41.84375 26.875 -41.75 C 25.863281 -41.65625 24.867188 -41.367188 23.890625 -40.890625 C 22.910156 -40.421875 22.101562 -39.644531 21.46875 -38.5625 C 20.832031 -37.488281 20.515625 -35.972656 20.515625 -34.015625 C 20.515625 -31.859375 20.910156 -29.703125 21.703125 -27.546875 C 22.492188 -25.390625 23.601562 -23.394531 25.03125 -21.5625 C 26.457031 -19.726562 28.132812 -18.253906 30.0625 -17.140625 C 32 -16.035156 34.078125 -15.484375 36.296875 -15.484375 L 42.75 -15.484375 L 38.1875 0 L 35.25 0 C 30.6875 0 26.394531 -0.929688 22.375 -2.796875 C 18.351562 -4.671875 14.804688 -7.238281 11.734375 -10.5 C 8.660156 -13.757812 6.253906 -17.507812 4.515625 -21.75 C 2.773438 -26 1.90625 -30.53125 1.90625 -35.34375 C 1.90625 -38.1875 2.300781 -40.921875 3.09375 -43.546875 C 3.882812 -46.179688 5.179688 -48.539062 6.984375 -50.625 C 8.785156 -52.71875 11.222656 -54.363281 14.296875 -55.5625 C 17.367188 -56.769531 21.1875 -57.375 25.75 -57.375 Z M 37.234375 -57.375 "/></g></g></g><g fill="#00357a" fill-opacity="1"><g transform="translate(836.174023, 205.277936)"><g><path d="M 25.453125 -58.703125 L 33.4375 -58.703125 C 38.1875 -58.703125 42.050781 -58.066406 45.03125 -56.796875 C 48.007812 -55.535156 50.320312 -53.921875 51.96875 -51.953125 C 53.613281 -49.992188 54.785156 -47.984375 55.484375 -45.921875 C 56.179688 -43.867188 56.59375 -42.019531 56.71875 -40.375 C 56.84375 -38.726562 56.90625 -37.585938 56.90625 -36.953125 C 56.90625 -32.453125 56.285156 -27.921875 55.046875 -23.359375 C 53.816406 -18.804688 52.015625 -14.628906 49.640625 -10.828125 C 47.265625 -7.023438 44.378906 -3.984375 40.984375 -1.703125 C 37.597656 0.566406 33.753906 1.703125 29.453125 1.703125 C 25.140625 1.703125 21.289062 0.566406 17.90625 -1.703125 C 14.519531 -3.984375 11.640625 -7.023438 9.265625 -10.828125 C 6.890625 -14.628906 5.082031 -18.804688 3.84375 -23.359375 C 2.613281 -27.921875 2 -32.453125 2 -36.953125 C 2 -37.585938 2.0625 -38.726562 2.1875 -40.375 C 2.3125 -42.019531 2.722656 -43.867188 3.421875 -45.921875 C 4.117188 -47.984375 5.289062 -49.992188 6.9375 -51.953125 C 8.582031 -53.921875 10.890625 -55.535156 13.859375 -56.796875 C 16.835938 -58.066406 20.703125 -58.703125 25.453125 -58.703125 Z M 29.453125 -14.8125 C 30.585938 -14.8125 31.835938 -15.695312 33.203125 -17.46875 C 34.566406 -19.25 35.753906 -21.675781 36.765625 -24.75 C 37.773438 -27.820312 38.28125 -31.351562 38.28125 -35.34375 C 38.28125 -38.125 37.503906 -40.128906 35.953125 -41.359375 C 34.398438 -42.597656 32.234375 -43.21875 29.453125 -43.21875 C 26.660156 -43.21875 24.488281 -42.597656 22.9375 -41.359375 C 21.382812 -40.128906 20.609375 -38.125 20.609375 -35.34375 C 20.609375 -31.351562 21.113281 -27.820312 22.125 -24.75 C 23.144531 -21.675781 24.347656 -19.25 25.734375 -17.46875 C 27.128906 -15.695312 28.367188 -14.8125 29.453125 -14.8125 Z M 29.453125 -14.8125 "/></g></g></g><g fill="#00357a" fill-opacity="1"><g transform="translate(895.069206, 205.277936)"><g><path d="M 5.3125 -57.375 L 33.0625 -57.375 C 37.625 -57.375 41.453125 -56.769531 44.546875 -55.5625 C 47.648438 -54.363281 50.101562 -52.71875 51.90625 -50.625 C 53.71875 -48.539062 55.019531 -46.179688 55.8125 -43.546875 C 56.601562 -40.921875 57 -38.1875 57 -35.34375 C 57 -29.957031 55.78125 -24.757812 53.34375 -19.75 C 50.90625 -14.75 47.210938 -10.378906 42.265625 -6.640625 C 37.328125 -2.910156 31.09375 -0.253906 23.5625 1.328125 L 23.5625 19.859375 L 5.3125 19.859375 Z M 23.5625 -41.890625 L 23.5625 -15.484375 C 26.539062 -15.867188 29.132812 -16.992188 31.34375 -18.859375 C 33.5625 -20.722656 35.285156 -23 36.515625 -25.6875 C 37.753906 -28.382812 38.375 -31.160156 38.375 -34.015625 C 38.375 -36.671875 37.820312 -38.535156 36.71875 -39.609375 C 35.613281 -40.691406 34.347656 -41.34375 32.921875 -41.5625 C 31.492188 -41.78125 30.304688 -41.890625 29.359375 -41.890625 Z M 23.5625 -41.890625 "/></g></g></g><g fill="#00357a" fill-opacity="1"><g transform="translate(953.964343, 205.277936)"><g><path d="M 50.828125 -15.484375 L 46.265625 0 L 35.25 0 C 30.6875 0 26.394531 -0.929688 22.375 -2.796875 C 18.351562 -4.671875 14.804688 -7.238281 11.734375 -10.5 C 8.660156 -13.757812 6.253906 -17.507812 4.515625 -21.75 C 2.773438 -26 1.90625 -30.53125 1.90625 -35.34375 C 2.03125 -43.445312 4.101562 -49.398438 8.125 -53.203125 C 12.144531 -57.003906 18.84375 -58.835938 28.21875 -58.703125 L 32.015625 -58.703125 C 36.515625 -58.703125 40.140625 -58.257812 42.890625 -57.375 C 45.648438 -56.488281 47.785156 -55.347656 49.296875 -53.953125 C 50.816406 -52.566406 51.863281 -51.128906 52.4375 -49.640625 C 53.007812 -48.148438 53.34375 -46.785156 53.4375 -45.546875 C 53.53125 -44.316406 53.578125 -43.414062 53.578125 -42.84375 C 53.578125 -38.601562 52.53125 -34.847656 50.4375 -31.578125 C 48.351562 -28.316406 45.726562 -25.46875 42.5625 -23.03125 C 39.394531 -20.59375 36.132812 -18.425781 32.78125 -16.53125 C 35.1875 -16.019531 37.210938 -15.71875 38.859375 -15.625 C 40.503906 -15.53125 42.085938 -15.484375 43.609375 -15.484375 Z M 34.953125 -40.28125 C 34.953125 -41.289062 34.632812 -41.984375 34 -42.359375 C 33.375 -42.742188 32.632812 -42.984375 31.78125 -43.078125 C 30.925781 -43.171875 30.117188 -43.21875 29.359375 -43.21875 C 23.460938 -43.21875 20.515625 -40.367188 20.515625 -34.671875 C 20.515625 -33.535156 20.625 -32.378906 20.84375 -31.203125 C 21.070312 -30.035156 21.375 -28.910156 21.75 -27.828125 C 22.707031 -28.335938 23.925781 -29.035156 25.40625 -29.921875 C 26.894531 -30.804688 28.367188 -31.816406 29.828125 -32.953125 C 31.285156 -34.097656 32.503906 -35.300781 33.484375 -36.5625 C 34.460938 -37.832031 34.953125 -39.070312 34.953125 -40.28125 Z M 34.953125 -40.28125 "/></g></g></g><g fill="#00357a" fill-opacity="1"><g transform="translate(386.79175, 277.755886)"><g><path d="M 8.25 0 L 1.78125 0 L 9.34375 -35.6875 L 18.21875 -35.6875 L 21.578125 -9.453125 L 22.09375 -9.453125 L 36.625 -35.6875 L 46.125 -35.6875 L 38.546875 0 L 31.859375 0 L 36.859375 -23.578125 L 36.28125 -23.6875 L 23.125 0 L 17.109375 0 L 13.890625 -23.6875 L 13.25 -23.578125 Z M 8.25 0 "/></g></g></g><g fill="#00357a" fill-opacity="1"><g transform="translate(432.829473, 277.755886)"><g><path d="M 13.40625 0.515625 C 11.125 0.515625 9.132812 0.0976562 7.4375 -0.734375 C 5.75 -1.578125 4.445312 -2.804688 3.53125 -4.421875 C 2.613281 -6.035156 2.15625 -7.976562 2.15625 -10.25 C 2.15625 -11.582031 2.304688 -12.972656 2.609375 -14.421875 C 3.191406 -17.128906 4.164062 -19.457031 5.53125 -21.40625 C 6.90625 -23.363281 8.640625 -24.859375 10.734375 -25.890625 C 12.828125 -26.921875 15.210938 -27.4375 17.890625 -27.4375 C 20.171875 -27.4375 22.15625 -27.003906 23.84375 -26.140625 C 25.539062 -25.285156 26.847656 -24.039062 27.765625 -22.40625 C 28.691406 -20.769531 29.15625 -18.816406 29.15625 -16.546875 C 29.15625 -15.296875 29.007812 -13.945312 28.71875 -12.5 C 28.125 -9.800781 27.140625 -7.472656 25.765625 -5.515625 C 24.390625 -3.566406 22.65625 -2.070312 20.5625 -1.03125 C 18.476562 0 16.09375 0.515625 13.40625 0.515625 Z M 14.03125 -5.21875 C 16.007812 -5.21875 17.671875 -5.90625 19.015625 -7.28125 C 20.367188 -8.65625 21.335938 -10.710938 21.921875 -13.453125 C 22.171875 -14.609375 22.296875 -15.617188 22.296875 -16.484375 C 22.296875 -18.253906 21.851562 -19.566406 20.96875 -20.421875 C 20.09375 -21.273438 18.859375 -21.703125 17.265625 -21.703125 C 15.296875 -21.703125 13.632812 -21.015625 12.28125 -19.640625 C 10.925781 -18.265625 9.957031 -16.203125 9.375 -13.453125 C 9.132812 -12.328125 9.015625 -11.328125 9.015625 -10.453125 C 9.015625 -8.671875 9.457031 -7.351562 10.34375 -6.5 C 11.226562 -5.644531 12.457031 -5.21875 14.03125 -5.21875 Z M 14.03125 -5.21875 "/></g></g></g><g fill="#00357a" fill-opacity="1"><g transform="translate(464.123408, 277.755886)"><g><path d="M 1.03125 0 L 6.734375 -26.921875 L 13.234375 -26.921875 L 12.46875 -23.3125 L 12.96875 -23.21875 C 13.875 -24.632812 15 -25.691406 16.34375 -26.390625 C 17.6875 -27.085938 19.296875 -27.4375 21.171875 -27.4375 C 24.972656 -27.4375 27.273438 -25.859375 28.078125 -22.703125 L 28.59375 -22.703125 C 29.613281 -24.328125 30.816406 -25.519531 32.203125 -26.28125 C 33.597656 -27.050781 35.265625 -27.4375 37.203125 -27.4375 C 39.546875 -27.4375 41.316406 -26.828125 42.515625 -25.609375 C 43.710938 -24.398438 44.3125 -22.707031 44.3125 -20.53125 C 44.3125 -19.550781 44.191406 -18.503906 43.953125 -17.390625 L 40.265625 0 L 33.5 0 L 37.15625 -17.265625 C 37.269531 -17.785156 37.328125 -18.289062 37.328125 -18.78125 C 37.328125 -20.75 36.203125 -21.734375 33.953125 -21.734375 C 32.234375 -21.734375 30.789062 -21.144531 29.625 -19.96875 C 28.457031 -18.800781 27.597656 -16.90625 27.046875 -14.28125 L 24.03125 0 L 17.265625 0 L 20.921875 -17.265625 C 21.035156 -17.785156 21.09375 -18.289062 21.09375 -18.78125 C 21.09375 -20.75 19.960938 -21.734375 17.703125 -21.734375 C 15.992188 -21.734375 14.554688 -21.15625 13.390625 -20 C 12.222656 -18.84375 11.375 -16.984375 10.84375 -14.421875 L 7.78125 0 Z M 1.03125 0 "/></g></g></g><g fill="#00357a" fill-opacity="1"><g transform="translate(510.698157, 277.755886)"><g><path d="M 27.390625 -18.796875 C 26.773438 -15.804688 25.148438 -13.660156 22.515625 -12.359375 C 19.878906 -11.054688 16.65625 -10.40625 12.84375 -10.40625 C 11.488281 -10.40625 10.234375 -10.460938 9.078125 -10.578125 C 9.148438 -8.785156 9.625 -7.441406 10.5 -6.546875 C 11.375 -5.660156 12.609375 -5.21875 14.203125 -5.21875 C 15.691406 -5.21875 16.921875 -5.507812 17.890625 -6.09375 C 18.867188 -6.6875 19.765625 -7.585938 20.578125 -8.796875 L 21.09375 -8.796875 L 25.4375 -5.828125 C 24.601562 -4.492188 23.675781 -3.367188 22.65625 -2.453125 C 21.632812 -1.546875 20.335938 -0.820312 18.765625 -0.28125 C 17.191406 0.25 15.265625 0.515625 12.984375 0.515625 C 10.921875 0.515625 9.078125 0.0703125 7.453125 -0.8125 C 5.835938 -1.707031 4.566406 -2.992188 3.640625 -4.671875 C 2.722656 -6.359375 2.265625 -8.375 2.265625 -10.71875 C 2.265625 -12.050781 2.421875 -13.457031 2.734375 -14.9375 C 3.285156 -17.539062 4.304688 -19.78125 5.796875 -21.65625 C 7.285156 -23.539062 9.082031 -24.972656 11.1875 -25.953125 C 13.300781 -26.941406 15.5625 -27.4375 17.96875 -27.4375 C 20.019531 -27.4375 21.765625 -27.125 23.203125 -26.5 C 24.640625 -25.875 25.722656 -25.019531 26.453125 -23.9375 C 27.191406 -22.851562 27.5625 -21.65625 27.5625 -20.34375 C 27.5625 -19.78125 27.503906 -19.265625 27.390625 -18.796875 Z M 17.328125 -22.1875 C 16.285156 -22.1875 15.269531 -21.953125 14.28125 -21.484375 C 13.300781 -21.015625 12.410156 -20.300781 11.609375 -19.34375 C 10.816406 -18.394531 10.210938 -17.210938 9.796875 -15.796875 C 11.046875 -15.703125 12.234375 -15.65625 13.359375 -15.65625 C 15.566406 -15.65625 17.328125 -15.929688 18.640625 -16.484375 C 19.953125 -17.035156 20.753906 -18.007812 21.046875 -19.40625 C 21.078125 -19.601562 21.09375 -19.757812 21.09375 -19.875 C 21.09375 -20.5625 20.765625 -21.117188 20.109375 -21.546875 C 19.460938 -21.972656 18.535156 -22.1875 17.328125 -22.1875 Z M 17.328125 -22.1875 "/></g></g></g><g fill="#00357a" fill-opacity="1"><g transform="translate(539.966041, 277.755886)"><g><path d="M 1.03125 0 L 6.734375 -26.921875 L 13.234375 -26.921875 L 12.40625 -22.96875 L 12.859375 -22.859375 C 13.867188 -24.367188 15.070312 -25.507812 16.46875 -26.28125 C 17.863281 -27.050781 19.546875 -27.4375 21.515625 -27.4375 C 23.984375 -27.4375 25.863281 -26.765625 27.15625 -25.421875 C 28.457031 -24.078125 29.109375 -22.21875 29.109375 -19.84375 C 29.109375 -18.832031 28.984375 -17.726562 28.734375 -16.53125 L 25.21875 0 L 18.453125 0 L 22 -16.671875 C 22.113281 -17.179688 22.171875 -17.695312 22.171875 -18.21875 C 22.171875 -19.332031 21.84375 -20.195312 21.1875 -20.8125 C 20.539062 -21.425781 19.582031 -21.734375 18.3125 -21.734375 C 16.4375 -21.734375 14.847656 -21.101562 13.546875 -19.84375 C 12.242188 -18.59375 11.3125 -16.625 10.75 -13.9375 L 7.78125 0 Z M 1.03125 0 "/></g></g></g><g fill="#00357a" fill-opacity="1"><g transform="translate(571.504079, 277.755886)"><g><path d="M 13.40625 -21.578125 L 10.796875 -9.28125 C 10.691406 -8.820312 10.640625 -8.398438 10.640625 -8.015625 C 10.640625 -7.179688 10.863281 -6.539062 11.3125 -6.09375 C 11.757812 -5.65625 12.398438 -5.4375 13.234375 -5.4375 C 13.816406 -5.4375 14.359375 -5.519531 14.859375 -5.6875 C 15.367188 -5.851562 15.882812 -6.097656 16.40625 -6.421875 L 16.921875 -6.421875 L 17.84375 -1.421875 C 17 -0.785156 16.082031 -0.304688 15.09375 0.015625 C 14.113281 0.347656 12.832031 0.515625 11.25 0.515625 C 9.769531 0.515625 8.46875 0.25 7.34375 -0.28125 C 6.226562 -0.8125 5.351562 -1.613281 4.71875 -2.6875 C 4.082031 -3.757812 3.765625 -5.078125 3.765625 -6.640625 C 3.765625 -7.554688 3.867188 -8.515625 4.078125 -9.515625 L 6.640625 -21.578125 L 2.546875 -21.578125 L 3.6875 -26.953125 L 7.78125 -26.953125 L 8.90625 -32.203125 L 15.890625 -33.296875 L 14.546875 -26.953125 L 22.1875 -26.953125 L 21.046875 -21.578125 Z M 13.40625 -21.578125 "/></g></g></g><g fill="#00357a" fill-opacity="1"><g transform="translate(592.423659, 277.755886)"><g><path d="M 9.578125 0.515625 C 8.046875 0.515625 6.742188 0.191406 5.671875 -0.453125 C 4.609375 -1.097656 3.800781 -2 3.25 -3.15625 C 2.707031 -4.3125 2.4375 -5.644531 2.4375 -7.15625 C 2.4375 -8.09375 2.550781 -9.117188 2.78125 -10.234375 L 6.328125 -26.921875 L 13.09375 -26.921875 L 9.5 -9.9375 C 9.394531 -9.445312 9.34375 -8.988281 9.34375 -8.5625 C 9.34375 -7.507812 9.648438 -6.6875 10.265625 -6.09375 C 10.890625 -5.5 11.796875 -5.203125 12.984375 -5.203125 C 16.828125 -5.203125 19.296875 -7.75 20.390625 -12.84375 L 23.359375 -26.921875 L 30.125 -26.921875 L 24.421875 0 L 17.921875 0 L 18.75 -3.953125 L 18.28125 -4.078125 C 17.207031 -2.515625 16 -1.359375 14.65625 -0.609375 C 13.3125 0.140625 11.617188 0.515625 9.578125 0.515625 Z M 9.578125 0.515625 "/></g></g></g><g fill="#00357a" fill-opacity="1"><g transform="translate(623.571133, 277.755886)"><g><path d="M 1.03125 0 L 6.734375 -26.921875 L 13.234375 -26.921875 L 12.46875 -23.3125 L 12.96875 -23.21875 C 13.875 -24.632812 15 -25.691406 16.34375 -26.390625 C 17.6875 -27.085938 19.296875 -27.4375 21.171875 -27.4375 C 24.972656 -27.4375 27.273438 -25.859375 28.078125 -22.703125 L 28.59375 -22.703125 C 29.613281 -24.328125 30.816406 -25.519531 32.203125 -26.28125 C 33.597656 -27.050781 35.265625 -27.4375 37.203125 -27.4375 C 39.546875 -27.4375 41.316406 -26.828125 42.515625 -25.609375 C 43.710938 -24.398438 44.3125 -22.707031 44.3125 -20.53125 C 44.3125 -19.550781 44.191406 -18.503906 43.953125 -17.390625 L 40.265625 0 L 33.5 0 L 37.15625 -17.265625 C 37.269531 -17.785156 37.328125 -18.289062 37.328125 -18.78125 C 37.328125 -20.75 36.203125 -21.734375 33.953125 -21.734375 C 32.234375 -21.734375 30.789062 -21.144531 29.625 -19.96875 C 28.457031 -18.800781 27.597656 -16.90625 27.046875 -14.28125 L 24.03125 0 L 17.265625 0 L 20.921875 -17.265625 C 21.035156 -17.785156 21.09375 -18.289062 21.09375 -18.78125 C 21.09375 -20.75 19.960938 -21.734375 17.703125 -21.734375 C 15.992188 -21.734375 14.554688 -21.15625 13.390625 -20 C 12.222656 -18.84375 11.375 -16.984375 10.84375 -14.421875 L 7.78125 0 Z M 1.03125 0 "/></g></g></g><g fill="#00357a" fill-opacity="1"><g transform="translate(670.145882, 277.755886)"><g/></g></g><g fill="#00357a" fill-opacity="1"><g transform="translate(681.936042, 277.755886)"><g><path d="M 21.875 -35.6875 C 25.03125 -35.6875 27.710938 -35.132812 29.921875 -34.03125 C 32.128906 -32.9375 33.796875 -31.367188 34.921875 -29.328125 C 36.054688 -27.285156 36.625 -24.847656 36.625 -22.015625 C 36.625 -20.441406 36.421875 -18.660156 36.015625 -16.671875 C 34.835938 -11.191406 32.503906 -7.039062 29.015625 -4.21875 C 25.535156 -1.40625 20.738281 0 14.625 0 L 1.78125 0 L 9.34375 -35.6875 Z M 28.984375 -17.84375 C 29.285156 -19.28125 29.4375 -20.597656 29.4375 -21.796875 C 29.4375 -24.472656 28.679688 -26.46875 27.171875 -27.78125 C 25.660156 -29.101562 23.445312 -29.765625 20.53125 -29.765625 L 15.140625 -29.765625 L 10.109375 -5.9375 L 15.453125 -5.9375 C 19.066406 -5.9375 22 -6.878906 24.25 -8.765625 C 26.507812 -10.648438 28.085938 -13.675781 28.984375 -17.84375 Z M 28.984375 -17.84375 "/></g></g></g><g fill="#00357a" fill-opacity="1"><g transform="translate(720.089245, 277.755886)"><g><path d="M 27.390625 -18.796875 C 26.773438 -15.804688 25.148438 -13.660156 22.515625 -12.359375 C 19.878906 -11.054688 16.65625 -10.40625 12.84375 -10.40625 C 11.488281 -10.40625 10.234375 -10.460938 9.078125 -10.578125 C 9.148438 -8.785156 9.625 -7.441406 10.5 -6.546875 C 11.375 -5.660156 12.609375 -5.21875 14.203125 -5.21875 C 15.691406 -5.21875 16.921875 -5.507812 17.890625 -6.09375 C 18.867188 -6.6875 19.765625 -7.585938 20.578125 -8.796875 L 21.09375 -8.796875 L 25.4375 -5.828125 C 24.601562 -4.492188 23.675781 -3.367188 22.65625 -2.453125 C 21.632812 -1.546875 20.335938 -0.820312 18.765625 -0.28125 C 17.191406 0.25 15.265625 0.515625 12.984375 0.515625 C 10.921875 0.515625 9.078125 0.0703125 7.453125 -0.8125 C 5.835938 -1.707031 4.566406 -2.992188 3.640625 -4.671875 C 2.722656 -6.359375 2.265625 -8.375 2.265625 -10.71875 C 2.265625 -12.050781 2.421875 -13.457031 2.734375 -14.9375 C 3.285156 -17.539062 4.304688 -19.78125 5.796875 -21.65625 C 7.285156 -23.539062 9.082031 -24.972656 11.1875 -25.953125 C 13.300781 -26.941406 15.5625 -27.4375 17.96875 -27.4375 C 20.019531 -27.4375 21.765625 -27.125 23.203125 -26.5 C 24.640625 -25.875 25.722656 -25.019531 26.453125 -23.9375 C 27.191406 -22.851562 27.5625 -21.65625 27.5625 -20.34375 C 27.5625 -19.78125 27.503906 -19.265625 27.390625 -18.796875 Z M 17.328125 -22.1875 C 16.285156 -22.1875 15.269531 -21.953125 14.28125 -21.484375 C 13.300781 -21.015625 12.410156 -20.300781 11.609375 -19.34375 C 10.816406 -18.394531 10.210938 -17.210938 9.796875 -15.796875 C 11.046875 -15.703125 12.234375 -15.65625 13.359375 -15.65625 C 15.566406 -15.65625 17.328125 -15.929688 18.640625 -16.484375 C 19.953125 -17.035156 20.753906 -18.007812 21.046875 -19.40625 C 21.078125 -19.601562 21.09375 -19.757812 21.09375 -19.875 C 21.09375 -20.5625 20.765625 -21.117188 20.109375 -21.546875 C 19.460938 -21.972656 18.535156 -22.1875 17.328125 -22.1875 Z M 17.328125 -22.1875 "/></g></g></g><g fill="#00357a" fill-opacity="1"><g transform="translate(749.357118, 277.755886)"><g><path d="M 1.03125 0 L 6.734375 -26.921875 L 13.234375 -26.921875 L 12.46875 -23.3125 L 12.96875 -23.21875 C 13.875 -24.632812 15 -25.691406 16.34375 -26.390625 C 17.6875 -27.085938 19.296875 -27.4375 21.171875 -27.4375 C 24.972656 -27.4375 27.273438 -25.859375 28.078125 -22.703125 L 28.59375 -22.703125 C 29.613281 -24.328125 30.816406 -25.519531 32.203125 -26.28125 C 33.597656 -27.050781 35.265625 -27.4375 37.203125 -27.4375 C 39.546875 -27.4375 41.316406 -26.828125 42.515625 -25.609375 C 43.710938 -24.398438 44.3125 -22.707031 44.3125 -20.53125 C 44.3125 -19.550781 44.191406 -18.503906 43.953125 -17.390625 L 40.265625 0 L 33.5 0 L 37.15625 -17.265625 C 37.269531 -17.785156 37.328125 -18.289062 37.328125 -18.78125 C 37.328125 -20.75 36.203125 -21.734375 33.953125 -21.734375 C 32.234375 -21.734375 30.789062 -21.144531 29.625 -19.96875 C 28.457031 -18.800781 27.597656 -16.90625 27.046875 -14.28125 L 24.03125 0 L 17.265625 0 L 20.921875 -17.265625 C 21.035156 -17.785156 21.09375 -18.289062 21.09375 -18.78125 C 21.09375 -20.75 19.960938 -21.734375 17.703125 -21.734375 C 15.992188 -21.734375 14.554688 -21.15625 13.390625 -20 C 12.222656 -18.84375 11.375 -16.984375 10.84375 -14.421875 L 7.78125 0 Z M 1.03125 0 "/></g></g></g><g fill="#00357a" fill-opacity="1"><g transform="translate(795.931867, 277.755886)"><g><path d="M 0.78125 11.421875 C -0.375 11.421875 -1.421875 11.332031 -2.359375 11.15625 C -3.296875 10.976562 -4.023438 10.742188 -4.546875 10.453125 L -2.3125 4.984375 L -1.859375 4.828125 C -1.484375 5.046875 -1.007812 5.21875 -0.4375 5.34375 C 0.132812 5.476562 0.738281 5.546875 1.375 5.546875 C 2.457031 5.546875 3.394531 5.398438 4.1875 5.109375 C 4.976562 4.828125 5.691406 4.351562 6.328125 3.6875 C 6.972656 3.03125 7.613281 2.117188 8.25 0.953125 L 3.4375 -26.921875 L 10.15625 -26.921875 L 12.96875 -8.203125 L 13.546875 -8.203125 L 23.96875 -26.921875 L 31.203125 -26.921875 L 14.375 2.171875 C 13.0625 4.453125 11.738281 6.265625 10.40625 7.609375 C 9.082031 8.953125 7.644531 9.921875 6.09375 10.515625 C 4.550781 11.117188 2.78125 11.421875 0.78125 11.421875 Z M 0.78125 11.421875 "/></g></g></g><g fill="#00357a" fill-opacity="1"><g transform="translate(824.833598, 277.755886)"><g><path d="M 9.796875 0.515625 C 8.179688 0.515625 6.671875 0.285156 5.265625 -0.171875 C 3.867188 -0.628906 2.675781 -1.25 1.6875 -2.03125 C 0.695312 -2.820312 -0.0351562 -3.707031 -0.515625 -4.6875 L 3.9375 -8.5625 L 4.4375 -8.5625 C 5.09375 -7.363281 5.960938 -6.460938 7.046875 -5.859375 C 8.140625 -5.253906 9.40625 -4.953125 10.84375 -4.953125 C 12.34375 -4.953125 13.488281 -5.25 14.28125 -5.84375 C 15.082031 -6.4375 15.484375 -7.28125 15.484375 -8.375 C 15.484375 -8.988281 15.257812 -9.515625 14.8125 -9.953125 C 14.363281 -10.398438 13.617188 -10.769531 12.578125 -11.0625 L 9.203125 -12.015625 C 7.523438 -12.503906 6.171875 -13.285156 5.140625 -14.359375 C 4.117188 -15.429688 3.609375 -16.832031 3.609375 -18.5625 C 3.609375 -19.175781 3.679688 -19.847656 3.828125 -20.578125 C 4.285156 -22.742188 5.484375 -24.425781 7.421875 -25.625 C 9.359375 -26.832031 11.929688 -27.4375 15.140625 -27.4375 C 17.378906 -27.4375 19.273438 -27.066406 20.828125 -26.328125 C 22.390625 -25.585938 23.566406 -24.613281 24.359375 -23.40625 L 20.125 -19.671875 L 19.625 -19.671875 C 19.0625 -20.523438 18.351562 -21.144531 17.5 -21.53125 C 16.644531 -21.925781 15.640625 -22.125 14.484375 -22.125 C 13.097656 -22.125 12.035156 -21.929688 11.296875 -21.546875 C 10.566406 -21.160156 10.125 -20.570312 9.96875 -19.78125 C 9.925781 -19.582031 9.90625 -19.4375 9.90625 -19.34375 C 9.90625 -18.769531 10.15625 -18.269531 10.65625 -17.84375 C 11.164062 -17.425781 11.882812 -17.09375 12.8125 -16.84375 L 15.890625 -16.046875 C 20.054688 -14.960938 22.140625 -12.765625 22.140625 -9.453125 C 22.140625 -8.753906 22.0625 -8.046875 21.90625 -7.328125 C 21.3125 -4.703125 20.054688 -2.738281 18.140625 -1.4375 C 16.222656 -0.132812 13.441406 0.515625 9.796875 0.515625 Z M 9.796875 0.515625 "/></g></g></g><g fill="#00357a" fill-opacity="1"><g transform="translate(849.658807, 277.755886)"><g><path d="M 13.40625 -21.578125 L 10.796875 -9.28125 C 10.691406 -8.820312 10.640625 -8.398438 10.640625 -8.015625 C 10.640625 -7.179688 10.863281 -6.539062 11.3125 -6.09375 C 11.757812 -5.65625 12.398438 -5.4375 13.234375 -5.4375 C 13.816406 -5.4375 14.359375 -5.519531 14.859375 -5.6875 C 15.367188 -5.851562 15.882812 -6.097656 16.40625 -6.421875 L 16.921875 -6.421875 L 17.84375 -1.421875 C 17 -0.785156 16.082031 -0.304688 15.09375 0.015625 C 14.113281 0.347656 12.832031 0.515625 11.25 0.515625 C 9.769531 0.515625 8.46875 0.25 7.34375 -0.28125 C 6.226562 -0.8125 5.351562 -1.613281 4.71875 -2.6875 C 4.082031 -3.757812 3.765625 -5.078125 3.765625 -6.640625 C 3.765625 -7.554688 3.867188 -8.515625 4.078125 -9.515625 L 6.640625 -21.578125 L 2.546875 -21.578125 L 3.6875 -26.953125 L 7.78125 -26.953125 L 8.90625 -32.203125 L 15.890625 -33.296875 L 14.546875 -26.953125 L 22.1875 -26.953125 L 21.046875 -21.578125 Z M 13.40625 -21.578125 "/></g></g></g><g fill="#00357a" fill-opacity="1"><g transform="translate(870.578422, 277.755886)"><g><path d="M 11.640625 -30.15625 C 10.421875 -30.15625 9.425781 -30.523438 8.65625 -31.265625 C 7.894531 -32.003906 7.515625 -32.957031 7.515625 -34.125 C 7.515625 -35.28125 7.894531 -36.226562 8.65625 -36.96875 C 9.425781 -37.71875 10.421875 -38.09375 11.640625 -38.09375 C 12.453125 -38.09375 13.175781 -37.921875 13.8125 -37.578125 C 14.445312 -37.234375 14.941406 -36.765625 15.296875 -36.171875 C 15.648438 -35.578125 15.828125 -34.894531 15.828125 -34.125 C 15.828125 -33.363281 15.648438 -32.679688 15.296875 -32.078125 C 14.941406 -31.472656 14.445312 -31 13.8125 -30.65625 C 13.175781 -30.320312 12.453125 -30.15625 11.640625 -30.15625 Z M 1.03125 0 L 6.765625 -26.921875 L 13.53125 -26.921875 L 7.78125 0 Z M 1.03125 0 "/></g></g></g><g fill="#00357a" fill-opacity="1"><g transform="translate(885.078085, 277.755886)"><g><path d="M 1.859375 0 L 6.453125 -21.578125 L 2.640625 -21.578125 L 3.78125 -26.953125 L 7.765625 -26.953125 L 7.734375 -28.046875 C 7.734375 -29.140625 7.828125 -30.078125 8.015625 -30.859375 C 8.335938 -32.359375 8.984375 -33.660156 9.953125 -34.765625 C 10.929688 -35.867188 12.195312 -36.722656 13.75 -37.328125 C 15.3125 -37.941406 17.09375 -38.25 19.09375 -38.25 C 20.632812 -38.25 21.96875 -38.070312 23.09375 -37.71875 C 24.21875 -37.363281 25.082031 -36.867188 25.6875 -36.234375 L 22.5625 -31.734375 L 22.015625 -31.640625 C 21.285156 -32.359375 20.226562 -32.71875 18.84375 -32.71875 C 17.625 -32.71875 16.644531 -32.421875 15.90625 -31.828125 C 15.164062 -31.234375 14.691406 -30.421875 14.484375 -29.390625 C 14.367188 -28.835938 14.3125 -28.3125 14.3125 -27.8125 C 14.3125 -27.632812 14.328125 -27.347656 14.359375 -26.953125 L 22.046875 -26.953125 L 20.90625 -21.578125 L 13.203125 -21.578125 L 8.625 0 Z M 1.859375 0 "/></g></g></g><g fill="#00357a" fill-opacity="1"><g transform="translate(904.508641, 277.755886)"><g><path d="M 11.640625 -30.15625 C 10.421875 -30.15625 9.425781 -30.523438 8.65625 -31.265625 C 7.894531 -32.003906 7.515625 -32.957031 7.515625 -34.125 C 7.515625 -35.28125 7.894531 -36.226562 8.65625 -36.96875 C 9.425781 -37.71875 10.421875 -38.09375 11.640625 -38.09375 C 12.453125 -38.09375 13.175781 -37.921875 13.8125 -37.578125 C 14.445312 -37.234375 14.941406 -36.765625 15.296875 -36.171875 C 15.648438 -35.578125 15.828125 -34.894531 15.828125 -34.125 C 15.828125 -33.363281 15.648438 -32.679688 15.296875 -32.078125 C 14.941406 -31.472656 14.445312 -31 13.8125 -30.65625 C 13.175781 -30.320312 12.453125 -30.15625 11.640625 -30.15625 Z M 1.03125 0 L 6.765625 -26.921875 L 13.53125 -26.921875 L 7.78125 0 Z M 1.03125 0 "/></g></g></g><g fill="#00357a" fill-opacity="1"><g transform="translate(919.00835, 277.755886)"><g><path d="M 27.390625 -18.796875 C 26.773438 -15.804688 25.148438 -13.660156 22.515625 -12.359375 C 19.878906 -11.054688 16.65625 -10.40625 12.84375 -10.40625 C 11.488281 -10.40625 10.234375 -10.460938 9.078125 -10.578125 C 9.148438 -8.785156 9.625 -7.441406 10.5 -6.546875 C 11.375 -5.660156 12.609375 -5.21875 14.203125 -5.21875 C 15.691406 -5.21875 16.921875 -5.507812 17.890625 -6.09375 C 18.867188 -6.6875 19.765625 -7.585938 20.578125 -8.796875 L 21.09375 -8.796875 L 25.4375 -5.828125 C 24.601562 -4.492188 23.675781 -3.367188 22.65625 -2.453125 C 21.632812 -1.546875 20.335938 -0.820312 18.765625 -0.28125 C 17.191406 0.25 15.265625 0.515625 12.984375 0.515625 C 10.921875 0.515625 9.078125 0.0703125 7.453125 -0.8125 C 5.835938 -1.707031 4.566406 -2.992188 3.640625 -4.671875 C 2.722656 -6.359375 2.265625 -8.375 2.265625 -10.71875 C 2.265625 -12.050781 2.421875 -13.457031 2.734375 -14.9375 C 3.285156 -17.539062 4.304688 -19.78125 5.796875 -21.65625 C 7.285156 -23.539062 9.082031 -24.972656 11.1875 -25.953125 C 13.300781 -26.941406 15.5625 -27.4375 17.96875 -27.4375 C 20.019531 -27.4375 21.765625 -27.125 23.203125 -26.5 C 24.640625 -25.875 25.722656 -25.019531 26.453125 -23.9375 C 27.191406 -22.851562 27.5625 -21.65625 27.5625 -20.34375 C 27.5625 -19.78125 27.503906 -19.265625 27.390625 -18.796875 Z M 17.328125 -22.1875 C 16.285156 -22.1875 15.269531 -21.953125 14.28125 -21.484375 C 13.300781 -21.015625 12.410156 -20.300781 11.609375 -19.34375 C 10.816406 -18.394531 10.210938 -17.210938 9.796875 -15.796875 C 11.046875 -15.703125 12.234375 -15.65625 13.359375 -15.65625 C 15.566406 -15.65625 17.328125 -15.929688 18.640625 -16.484375 C 19.953125 -17.035156 20.753906 -18.007812 21.046875 -19.40625 C 21.078125 -19.601562 21.09375 -19.757812 21.09375 -19.875 C 21.09375 -20.5625 20.765625 -21.117188 20.109375 -21.546875 C 19.460938 -21.972656 18.535156 -22.1875 17.328125 -22.1875 Z M 17.328125 -22.1875 "/></g></g></g><g fill="#00357a" fill-opacity="1"><g transform="translate(948.276201, 277.755886)"><g><path d="M 11.0625 0.515625 C 9.351562 0.515625 7.820312 0.15625 6.46875 -0.5625 C 5.113281 -1.289062 4.039062 -2.40625 3.25 -3.90625 C 2.46875 -5.414062 2.078125 -7.304688 2.078125 -9.578125 C 2.078125 -11.066406 2.269531 -12.738281 2.65625 -14.59375 C 3.550781 -18.78125 5.175781 -21.96875 7.53125 -24.15625 C 9.882812 -26.34375 12.859375 -27.4375 16.453125 -27.4375 C 18.097656 -27.4375 19.488281 -27.109375 20.625 -26.453125 C 21.769531 -25.796875 22.660156 -24.875 23.296875 -23.6875 L 23.828125 -23.796875 L 26.8125 -37.75 L 33.5625 -37.75 L 25.53125 0 L 18.78125 0 L 19.484375 -3.25 L 19 -3.34375 C 18.019531 -2.070312 16.925781 -1.109375 15.71875 -0.453125 C 14.519531 0.191406 12.96875 0.515625 11.0625 0.515625 Z M 13.8125 -5.21875 C 15.71875 -5.21875 17.347656 -5.847656 18.703125 -7.109375 C 20.054688 -8.378906 21.015625 -10.332031 21.578125 -12.96875 C 21.828125 -14.132812 21.953125 -15.164062 21.953125 -16.0625 C 21.953125 -17.945312 21.503906 -19.359375 20.609375 -20.296875 C 19.710938 -21.234375 18.5625 -21.703125 17.15625 -21.703125 C 15.226562 -21.703125 13.597656 -21.039062 12.265625 -19.71875 C 10.941406 -18.40625 10.007812 -16.476562 9.46875 -13.9375 C 9.207031 -12.738281 9.078125 -11.640625 9.078125 -10.640625 C 9.078125 -8.785156 9.503906 -7.414062 10.359375 -6.53125 C 11.210938 -5.65625 12.363281 -5.21875 13.8125 -5.21875 Z M 13.8125 -5.21875 "/></g></g></g><g fill="#00357a" fill-opacity="1"><g transform="translate(980.546569, 277.755886)"><g/></g></g><g fill="#00357a" fill-opacity="1"><g transform="translate(992.33673, 277.755886)"><g><path d="M 10.546875 -11.84375 L 4.4375 -11.84375 L 9.015625 -35.6875 L 16.09375 -35.6875 Z M 5.765625 0.25 C 4.921875 0.25 4.175781 0.078125 3.53125 -0.265625 C 2.882812 -0.609375 2.382812 -1.082031 2.03125 -1.6875 C 1.6875 -2.289062 1.515625 -2.96875 1.515625 -3.71875 C 1.515625 -4.476562 1.6875 -5.160156 2.03125 -5.765625 C 2.382812 -6.378906 2.882812 -6.859375 3.53125 -7.203125 C 4.175781 -7.546875 4.921875 -7.71875 5.765625 -7.71875 C 7.035156 -7.71875 8.054688 -7.34375 8.828125 -6.59375 C 9.597656 -5.84375 9.984375 -4.890625 9.984375 -3.734375 C 9.984375 -2.578125 9.597656 -1.625 8.828125 -0.875 C 8.054688 -0.125 7.035156 0.25 5.765625 0.25 Z M 5.765625 0.25 "/></g></g></g><g clip-path="url(#a6b5f997b6)"><path fill="#00357a" d="M 155.402344 75.28125 C 81.109375 75.28125 20.757812 135.632812 20.757812 209.925781 C 20.757812 284.214844 81.109375 344.566406 155.402344 344.566406 C 229.691406 344.566406 290.042969 284.214844 290.042969 209.925781 C 290.042969 135.632812 229.691406 75.28125 155.402344 75.28125 Z M 155.402344 86.5 C 223.628906 86.5 278.824219 141.695312 278.824219 209.925781 C 278.824219 278.152344 223.628906 333.347656 155.402344 333.347656 C 87.171875 333.347656 31.976562 278.152344 31.976562 209.925781 C 31.976562 141.695312 87.171875 86.5 155.402344 86.5 Z M 155.402344 86.5 " fill-opacity="1" fill-rule="nonzero"/></g><g mask="url(#83c04c869b)"><g transform="matrix(1, 0, 0, 1, 0, 49)"><g clip-path="url(#8b2d923d2f)"><g clip-path="url(#85a8059b0d)"><g clip-path="url(#eef818b28e)"><g clip-path="url(#c2ab8085c8)"><path fill="#00357a" d="M 255.320312 96.816406 L 248.253906 101.707031 C 214.359375 52.722656 146.941406 40.449219 97.960938 74.339844 C 48.980469 108.234375 36.703125 175.65625 70.597656 224.636719 L 63.53125 229.527344 C 45.808594 203.910156 39.121094 172.929688 44.695312 142.285156 C 50.277344 111.640625 67.453125 85 93.070312 67.277344 C 118.6875 49.550781 149.667969 42.863281 180.3125 48.445312 C 210.957031 54.023438 237.597656 71.203125 255.320312 96.816406 Z M 255.320312 96.816406 " fill-opacity="1" fill-rule="nonzero"/></g></g></g></g></g></g><g mask="url(#9c04a31624)"><g transform="matrix(1, 0, 0, 1, 211, 121)"><g clip-path="url(#917045fc44)"><g clip-path="url(#d5e4fc5512)"><path fill="#33cc33" d="M 0.945312 63.378906 L 10.382812 63.378906 L 10.382812 83.480469 L 12.550781 83.480469 L 12.550781 63.378906 L 22.109375 63.378906 L 22.109375 16.960938 L 12.550781 16.960938 L 12.550781 0.765625 L 10.382812 0.765625 L 10.382812 16.960938 L 0.945312 16.960938 Z M 0.945312 63.378906 " fill-opacity="1" fill-rule="evenodd"/></g></g></g></g><g mask="url(#7891f5d3bd)"><g transform="matrix(1, 0, 0, 1, 69, 130)"><g clip-path="url(#0d412f50d4)"><g clip-path="url(#2b23cb2580)"><path fill="#ff0000" d="M 0.675781 146.011719 L 10.179688 146.011719 L 10.179688 163.769531 L 12.34375 163.769531 L 12.34375 146.011719 L 21.84375 146.011719 L 21.84375 116.855469 L 12.34375 116.855469 L 12.34375 112.5625 L 10.179688 112.5625 L 10.179688 116.855469 L 0.675781 116.855469 Z M 0.675781 146.011719 " fill-opacity="1" fill-rule="evenodd"/></g><g clip-path="url(#ea8fc775d4)"><path fill="#33cc33" d="M 29.46875 141.304688 L 39.671875 141.304688 L 39.671875 164.042969 L 41.839844 164.042969 L 41.839844 141.304688 L 52.0625 141.304688 L 52.0625 132.730469 L 41.839844 132.730469 L 41.839844 116.625 L 39.671875 116.625 L 39.671875 132.730469 L 29.46875 132.730469 Z M 29.46875 141.304688 " fill-opacity="1" fill-rule="evenodd"/></g><path fill="#33cc33" d="M 58.972656 132.039062 L 69.183594 132.039062 L 69.183594 140.691406 L 71.347656 140.691406 L 71.347656 132.039062 L 81.570312 132.039062 L 81.570312 50.339844 L 71.347656 50.339844 L 71.347656 40.304688 L 69.183594 40.304688 L 69.183594 50.339844 L 58.972656 50.339844 Z M 58.972656 132.039062 " fill-opacity="1" fill-rule="evenodd"/><path fill="#ff0000" d="M 89.195312 96.738281 L 98.632812 96.738281 L 98.632812 116.808594 L 100.800781 116.808594 L 100.800781 96.738281 L 110.363281 96.738281 L 110.363281 50.390625 L 100.800781 50.390625 L 100.800781 34.214844 L 98.632812 34.214844 L 98.632812 50.390625 L 89.195312 50.390625 Z M 89.195312 96.738281 " fill-opacity="1" fill-rule="evenodd"/><path fill="#33cc33" d="M 117.984375 98.140625 L 128.195312 98.140625 L 128.195312 110.839844 L 130.359375 110.839844 L 130.359375 98.140625 L 140.582031 98.140625 L 140.582031 80.085938 L 130.359375 80.085938 L 130.359375 77.539062 L 128.195312 77.539062 L 128.195312 80.085938 L 117.984375 80.085938 Z M 117.984375 98.140625 " fill-opacity="1" fill-rule="evenodd"/></g></g></g><path stroke-linecap="butt" transform="matrix(0.482125, -0.574505, 0.574505, 0.482125, 53.3723, 257.187753)" fill="none" stroke-linejoin="miter" d="M 0.00107287 1.499653 L 71.380731 1.499945 " stroke="#00357a" stroke-width="3" stroke-opacity="1" stroke-miterlimit="4"/><path stroke-linecap="butt" transform="matrix(0.685017, 0.305371, -0.305371, 0.685017, 86.700641, 217.571527)" fill="none" stroke-linejoin="miter" d="M -0.0012409 1.498515 L 74.199463 1.500534 " stroke="#00357a" stroke-width="3" stroke-opacity="1" stroke-miterlimit="4"/><path stroke-linecap="butt" transform="matrix(0.483707, -0.573174, 0.573174, 0.483707, 133.503275, 240.108747)" fill="none" stroke-linejoin="miter" d="M -0.00145039 1.501653 L 73.527155 1.501898 " stroke="#00357a" stroke-width="3" stroke-opacity="1" stroke-miterlimit="4"/><path stroke-linecap="butt" transform="matrix(0.738552, 0.130542, -0.130542, 0.738552, 170.515098, 198.494896)" fill="none" stroke-linejoin="miter" d="M 0.00107904 1.498237 L 74.719729 1.498261 " stroke="#00357a" stroke-width="3" stroke-opacity="1" stroke-miterlimit="4"/><path stroke-linecap="butt" transform="matrix(0.366961, -0.654094, 0.654094, 0.366961, 221.733854, 215.433382)" fill="none" stroke-linejoin="miter" d="M -0.000740357 1.500184 L 73.525732 1.498819 " stroke="#00357a" stroke-width="3" stroke-opacity="1" stroke-miterlimit="4"/><g clip-path="url(#9624a55d9b)"><g clip-path="url(#82a0d4d9cc)"><g clip-path="url(#12262a2f79)"><g transform="matrix(1, 0, 0, 1, 242, 160)"><g clip-path="url(#b38622591f)"><g clip-path="url(#536515bf4b)"><g clip-path="url(#a4bddd6398)"><g clip-path="url(#daf553340f)"><path fill="#2fa82f" d="M -0.738281 2.160156 L 13.746094 -0.3125 L 16.125 13.628906 L 1.640625 16.101562 Z M -0.738281 2.160156 " fill-opacity="1" fill-rule="nonzero"/></g></g></g></g></g></g></g></g><g clip-path="url(#ffe2cc8d83)"><g clip-path="url(#7a2e47be35)"><g clip-path="url(#61285c22c9)"><g transform="matrix(1, 0, 0, 1, 214, 202)"><g clip-path="url(#5e9380fdb7)"><g clip-path="url(#1a7ade4cb4)"><g clip-path="url(#1ccd5eca60)"><g clip-path="url(#df8f907103)"><path fill="#2fa82f" d="M -0.597656 1.507812 L 14.019531 -0.015625 L 15.484375 14.050781 L 0.871094 15.574219 Z M -0.597656 1.507812 " fill-opacity="1" fill-rule="nonzero"/></g></g></g></g></g></g></g></g><g clip-path="url(#28eaec0694)"><g clip-path="url(#13734f22dd)"><g clip-path="url(#43a242ee02)"><g transform="matrix(1, 0, 0, 1, 163, 195)"><g clip-path="url(#df6814adbb)"><g clip-path="url(#03e887a318)"><g clip-path="url(#39823f3dd5)"><g clip-path="url(#e17343fab8)"><path fill="#ffde59" d="M -0.699219 1.4375 L 13.917969 -0.0859375 L 15.386719 13.980469 L 0.769531 15.503906 Z M -0.699219 1.4375 " fill-opacity="1" fill-rule="nonzero"/></g></g></g></g></g></g></g></g><g clip-path="url(#90f45c2405)"><g clip-path="url(#8cba7664e7)"><g clip-path="url(#2d47e5d0da)"><g transform="matrix(1, 0, 0, 1, 129, 229)"><g clip-path="url(#b875a08ab3)"><g clip-path="url(#384b0aead3)"><g clip-path="url(#d969ce6334)"><g clip-path="url(#073f55975c)"><path fill="#ffde59" d="M -0.511719 0.839844 L 14.101562 -0.683594 L 15.570312 13.382812 L 0.957031 14.90625 Z M -0.511719 0.839844 " fill-opacity="1" fill-rule="nonzero"/></g></g></g></g></g></g></g></g><g clip-path="url(#5142f46cc8)"><g clip-path="url(#5ea26662bd)"><g clip-path="url(#8c2d3eb962)"><g transform="matrix(1, 0, 0, 1, 78, 211)"><g clip-path="url(#df89c9e15e)"><g clip-path="url(#50d0ddb8df)"><g clip-path="url(#ca31164691)"><g clip-path="url(#836170d472)"><path fill="#ff0000" d="M 0.195312 1.328125 L 14.8125 -0.199219 L 16.28125 13.867188 L 1.664062 15.394531 Z M 0.195312 1.328125 " fill-opacity="1" fill-rule="nonzero"/></g></g></g></g></g></g></g></g><g clip-path="url(#ac73b5562c)"><g clip-path="url(#9e0f5789fe)"><g clip-path="url(#73314796a5)"><g transform="matrix(1, 0, 0, 1, 48, 247)"><g clip-path="url(#20b450b9d0)"><g clip-path="url(#b2fb44a865)"><g clip-path="url(#8f5e706aba)"><g clip-path="url(#ff1f3c0923)"><path fill="#ff0000" d="M -0.125 1.304688 L 14.488281 -0.222656 L 15.957031 13.84375 L 1.34375 15.367188 Z M -0.125 1.304688 " fill-opacity="1" fill-rule="nonzero"/></g></g></g></g></g></g></g></g><g mask="url(#ae663c512a)"><g transform="matrix(1, 0, 0, 1, 55, 140)"><g clip-path="url(#83192b2b3b)"><g clip-path="url(#8d8da68f2c)"><g clip-path="url(#e717b26419)"><g clip-path="url(#e45575b8ea)"><path fill="#00357a" d="M 0.953125 134.445312 L 8 129.527344 C 42.089844 178.371094 109.558594 190.375 158.402344 156.285156 C 207.246094 122.195312 219.25 54.722656 185.160156 5.878906 L 192.203125 0.960938 C 210.03125 26.507812 216.84375 57.460938 211.390625 88.125 C 205.933594 118.792969 188.863281 145.503906 163.320312 163.332031 C 137.773438 181.160156 106.820312 187.96875 76.152344 182.515625 C 45.484375 177.058594 18.777344 159.984375 0.953125 134.445312 Z M 0.953125 134.445312 " fill-opacity="1" fill-rule="nonzero"/></g></g></g></g></g></g></svg>